<svg width="383" height="807" viewBox="0 0 383 807" fill="none" xmlns="http://www.w3.org/2000/svg">
<path d="M-13.2645 602.99L104.294 485.432L338.059 485.882L232.662 662.895H-13.2645V602.99Z" fill="#6F6F6F" fill-opacity="0.48"/>
<path d="M291.062 45.5986C291.842 48.1806 293.386 50.578 295.667 52.4415C301.842 57.4868 311.065 56.7235 316.27 50.7377C320.904 45.4053 320.783 37.7307 316.338 32.5512C318.426 31.5368 320.342 30.1047 321.943 28.263C328.253 21.0055 327.299 10.1622 319.813 4.04592C312.326 -2.07221 301.142 -1.14669 294.833 6.1114C292.902 8.33227 291.655 10.8888 291.064 13.5429C284.771 11.8224 277.742 13.6747 273.256 18.8356C267.141 25.8693 268.065 36.377 275.32 42.3049C279.845 46.002 285.765 47.0438 291.062 45.5986Z" fill="#FAEDD3"/>
<path d="M39.184 761.395C38.4042 758.812 36.8616 756.414 34.581 754.55C28.4079 749.503 19.1847 750.263 13.9778 756.247C9.34168 761.578 9.46048 769.253 13.9037 774.434C11.8149 775.448 9.89877 776.879 8.29703 778.72C1.98518 785.976 2.93528 796.82 10.4202 802.938C17.9051 809.059 29.0887 808.137 35.4005 800.881C37.3318 798.66 38.5795 796.104 39.1715 793.45C45.4637 795.173 52.4936 793.323 56.9818 788.163C63.0984 781.131 62.1774 770.623 54.9249 764.693C50.4004 760.995 44.4815 759.951 39.184 761.395Z" fill="#6574AF"/>
<path d="M287.191 101.006C290.32 101.361 293.588 100.859 296.609 99.3738C304.784 95.3541 308.051 85.6694 303.903 77.7431C300.211 70.6846 291.883 67.4058 284.33 69.6124C284.162 67.0465 283.467 64.4713 282.192 62.0323C277.165 52.4228 265.053 48.5833 255.141 53.4577C245.228 58.3321 241.268 70.0742 246.296 79.6843C247.835 82.6237 250.039 85.0211 252.637 86.7963C247.993 92.4097 246.874 100.353 250.449 107.187C255.321 116.501 267.057 120.22 276.664 115.497C282.656 112.55 286.402 107.015 287.191 101.006Z" fill="#FAEDD3"/>
<path d="M276.663 115.497C282.656 112.55 286.402 107.015 287.191 101.006C290.32 101.361 293.589 100.859 296.609 99.3739C301.51 96.9641 304.643 92.5193 305.477 87.6387C303.587 89.8291 301.22 91.6938 298.428 93.0669C292.355 96.0529 285.544 96.097 279.712 93.7543C278.215 99.7009 274.155 105.003 268.083 107.988C262.873 110.55 257.119 110.948 251.905 109.531C257.39 117.092 267.91 119.802 276.663 115.497Z" fill="#EEC36B"/>
<path d="M43.0725 705.988C39.943 705.632 36.6746 706.134 33.6533 707.618C25.4772 711.635 22.2078 721.318 26.3524 729.246C30.0423 736.306 38.3691 739.587 45.9238 737.383C46.0908 739.949 46.7842 742.524 48.0589 744.964C53.0832 754.575 65.1933 758.418 75.1077 753.547C85.0214 748.675 88.9851 736.935 83.9602 727.323C82.4228 724.383 80.2194 721.985 77.6218 720.209C82.2674 714.597 83.3893 706.654 79.8162 699.819C74.9466 690.504 63.2119 686.781 53.604 691.501C47.6112 694.445 43.8632 699.98 43.0725 705.988Z" fill="#6574AF"/>
<path d="M53.6046 691.501C47.6111 694.446 43.8631 699.98 43.0725 705.988C39.943 705.632 36.6746 706.134 33.6533 707.618C28.752 710.026 25.6179 714.47 24.7822 719.35C26.6725 717.16 29.04 715.296 31.8332 713.924C37.9063 710.94 44.7175 710.898 50.5489 713.243C52.0475 707.296 56.1093 701.996 62.1824 699.012C67.3932 696.452 73.1478 696.056 78.3605 697.475C72.8781 689.912 62.3595 687.199 53.6046 691.501Z" fill="#6574AF"/>
<path d="M230.975 85.1652C232.513 85.2094 234.082 85.0689 235.652 84.7246C245.67 82.5304 251.963 72.9066 249.709 63.2281C247.603 54.1923 238.791 48.3067 229.478 49.3503C229.621 47.8473 229.531 46.2996 229.17 44.7488C227.317 36.7946 219.14 31.8089 210.907 33.6121C202.696 35.4109 197.53 43.2844 199.343 51.2163C194.036 53.1748 190.881 58.6527 192.164 64.1592C193.458 69.7142 198.815 73.3579 204.531 72.8401C201.357 76.2811 199.885 81.0952 201.012 85.9292C202.865 93.8828 211.041 98.8684 219.273 97.0652C225.483 95.7052 229.95 90.8713 230.975 85.1652ZM213.004 68.1777C212.97 68.1833 212.937 68.1908 212.903 68.1976C212.936 68.1541 212.968 68.1112 212.999 68.0683C213.001 68.1037 213.002 68.141 213.004 68.1777Z" fill="#FAEDD3"/>
<path d="M219.273 97.0648C225.483 95.7054 229.95 90.8714 230.975 85.1654C232.513 85.2095 234.082 85.0691 235.652 84.7247C245.67 82.5306 251.963 72.9068 249.709 63.2283C249.213 61.1019 248.343 59.1533 247.184 57.4253C247.285 57.7566 247.379 58.0916 247.458 58.4329C249.512 67.2492 243.78 76.0153 234.654 78.0142C231.025 78.8092 227.41 78.4089 224.238 77.09C225.971 85.1511 220.702 93.1048 212.357 94.9328C211.405 95.141 210.453 95.2566 209.512 95.2933C209.213 95.4139 208.912 95.5307 208.609 95.6383C211.753 97.291 215.506 97.8902 219.273 97.0648Z" fill="#EEC36B"/>
<path d="M99.283 721.847C97.7452 721.802 96.1764 721.942 94.6055 722.286C84.5876 724.477 78.2912 734.099 80.5426 743.778C82.6456 752.814 91.4552 758.703 100.768 757.662C100.625 759.165 100.715 760.713 101.075 762.264C102.926 770.218 111.102 775.207 119.335 773.406C127.547 771.61 132.715 763.738 130.904 755.806C136.212 753.849 139.369 748.372 138.087 742.865C136.796 737.309 131.439 733.664 125.723 734.18C128.898 730.74 130.372 725.926 129.247 721.092C127.396 713.138 119.222 708.15 110.988 709.95C104.779 711.308 100.31 716.141 99.283 721.847ZM117.249 738.84C117.283 738.834 117.316 738.827 117.35 738.82C117.317 738.863 117.285 738.906 117.253 738.949C117.252 738.914 117.251 738.877 117.249 738.84Z" fill="#6574AF"/>
<path d="M110.988 709.951C104.779 711.308 100.31 716.141 99.283 721.847C97.7452 721.802 96.1763 721.942 94.6055 722.286C84.5876 724.477 78.2911 734.099 80.5425 743.778C81.0373 745.905 81.9069 747.853 83.0649 749.582C82.965 749.25 82.8706 748.915 82.7918 748.574C80.7402 739.757 86.4757 730.993 95.6023 728.997C99.2306 728.203 102.846 728.604 106.018 729.924C104.287 721.863 109.558 713.911 117.904 712.085C118.856 711.877 119.808 711.762 120.75 711.726C121.048 711.605 121.35 711.488 121.653 711.381C118.509 709.727 114.756 709.127 110.988 709.951Z" fill="#6574AF"/>
<path d="M377.796 147.237C377.81 138.962 370.902 132.245 362.369 132.232C354.912 132.219 348.687 137.333 347.225 144.143C346.179 136.867 339.744 131.26 331.949 131.249C323.416 131.236 316.486 137.932 316.473 146.206C316.473 146.362 316.48 146.517 316.484 146.674H316.458C316.468 146.386 316.473 146.228 316.473 146.206C316.486 138.061 309.686 131.682 301.286 131.669C292.885 131.656 286.064 138.248 286.05 146.393C286.05 146.471 286.054 146.549 286.056 146.626H286.039C286.044 146.471 286.051 146.315 286.051 146.159C286.064 137.885 279.158 131.167 270.624 131.154C262.091 131.141 255.161 137.838 255.148 146.111C255.148 146.268 255.155 146.423 255.16 146.579H255.147C255.147 146.439 255.148 146.358 255.148 146.344C255.161 138.2 248.361 131.587 239.961 131.575C231.56 131.562 224.739 138.153 224.726 146.297C224.726 146.376 224.729 146.454 224.731 146.531H224.714C224.719 146.376 224.727 146.22 224.727 146.064C224.74 137.789 217.833 131.072 209.299 131.059C200.766 131.045 193.837 137.742 193.823 146.016C193.823 146.172 193.83 146.327 193.835 146.483H193.817C193.82 146.406 193.823 146.328 193.823 146.249C193.837 138.105 187.038 131.491 178.637 131.479C170.235 131.466 163.415 138.057 163.402 146.202C163.402 146.217 163.404 146.298 163.408 146.436H163.389C163.394 146.28 163.402 146.125 163.402 145.968C163.416 137.694 156.508 130.976 147.975 130.963C139.441 130.95 132.511 137.647 132.497 145.921C132.497 146.077 132.505 146.233 132.51 146.388H132.491C132.494 146.311 132.498 146.233 132.498 146.154C132.512 138.01 125.713 131.397 117.311 131.383C108.911 131.371 102.09 137.963 102.076 146.107C102.075 147.196 118.728 401.872 122.348 457.223C122.342 457.223 122.337 457.224 122.337 457.224L122.866 465.129C122.978 466.849 123.038 467.759 123.038 467.759L149.113 467.8L149.108 467.713L175.185 467.753C175.188 467.808 175.188 467.839 175.188 467.839L200.781 467.878L200.779 467.792L226.856 467.833V467.918L252.931 467.958C252.931 467.958 252.932 467.927 252.933 467.871L279.009 467.912L279.007 467.997L305.083 468.038C305.083 468.038 305.084 468.007 305.086 467.952L331.162 467.991L331.158 468.078L356.751 468.117C356.751 468.117 356.753 468.086 356.757 468.03L356.844 468.031L356.854 467.882H356.993L369.38 276.228C369.38 276.228 369.376 276.239 369.372 276.249C373.846 208.09 377.796 147.8 377.796 147.237Z" fill="#812124"/>
<path d="M357.956 467.889L338.13 485.648L358.935 164.997L377.793 149.108L357.956 467.889Z" fill="#65191A"/>
<path d="M295.292 116.266C294.763 112.749 293.199 109.338 290.567 106.492C283.448 98.7902 271.236 98.1426 263.292 105.046C256.217 111.193 254.919 121.255 259.75 128.824C256.825 129.779 254.046 131.31 251.603 133.434C241.971 141.802 241.16 156.157 249.793 165.496C258.426 174.835 273.232 175.62 282.864 167.251C285.811 164.69 287.928 161.567 289.205 158.201C297.11 161.574 306.658 160.406 313.507 154.454C322.842 146.344 323.627 132.433 315.262 123.383C310.043 117.739 302.498 115.32 295.292 116.266Z" fill="#FAEDD3"/>
<path d="M315.261 123.383C310.043 117.739 302.498 115.32 295.292 116.266C294.763 112.748 293.199 109.338 290.567 106.492C286.301 101.876 280.204 99.7967 274.292 100.355C277.401 101.757 280.274 103.775 282.707 106.406C287.995 112.127 290.093 119.537 289.132 126.599C296.476 126.443 303.846 129.273 309.134 134.993C313.671 139.901 315.863 146.053 315.787 152.162C322.906 143.911 322.884 131.629 315.261 123.383Z" fill="#EEC36B"/>
<path d="M34.9757 690.726C35.5042 694.243 37.067 697.654 39.6979 700.501C46.8143 708.205 59.0261 708.857 66.9726 701.956C74.0499 695.811 75.3509 685.749 70.5224 678.179C73.4478 677.225 76.2267 675.695 78.6708 673.572C88.3053 665.206 89.1203 650.852 80.4903 641.51C71.8602 632.169 57.0546 631.379 47.4201 639.745C44.4724 642.305 42.3544 645.427 41.076 648.793C33.1725 645.417 23.6236 646.582 16.7726 652.532C7.43529 660.639 6.64586 674.55 15.0087 683.602C20.2257 689.248 27.7702 691.669 34.9757 690.726Z" fill="#6574AF"/>
<path d="M15.0087 683.602C20.2257 689.248 27.7702 691.67 34.9757 690.726C35.5042 694.244 37.067 697.655 39.6978 700.502C43.9628 705.119 50.0592 707.2 55.9705 706.643C52.8624 705.241 49.9896 703.221 47.5582 700.59C42.2717 694.867 40.1755 687.457 41.1387 680.395C33.7948 680.549 26.4257 677.716 21.1398 671.994C16.6039 667.085 14.4142 660.932 14.4919 654.824C7.37107 663.072 7.38897 675.354 15.0087 683.602Z" fill="#6574AF"/>
<path d="M215.012 185.567C218.537 186.546 222.387 186.568 226.145 185.414C236.315 182.293 241.949 171.769 238.728 161.909C235.86 153.127 226.934 147.84 217.831 148.994C218.137 146.017 217.84 142.932 216.85 139.899C212.945 127.944 199.784 121.322 187.452 125.108C175.122 128.894 168.291 141.654 172.195 153.608C173.39 157.266 175.454 160.421 178.093 162.935C171.669 168.531 168.839 177.449 171.616 185.951C175.4 197.536 188.155 203.953 200.104 200.285C207.558 197.995 212.937 192.323 215.012 185.567Z" fill="#FAEDD3"/>
<path d="M200.104 200.284C207.558 197.995 212.937 192.322 215.012 185.567C218.537 186.546 222.387 186.567 226.145 185.414C232.24 183.543 236.703 179.01 238.61 173.558C236.013 175.728 232.933 177.436 229.459 178.504C221.905 180.822 214.076 179.628 207.832 175.872C204.956 182.427 199.264 187.774 191.71 190.092C185.228 192.082 178.543 191.488 172.831 188.906C177.662 198.592 189.216 203.626 200.104 200.284Z" fill="#EEC36B"/>
<path d="M115.277 621.45C111.753 620.47 107.903 620.447 104.144 621.599C93.9737 624.718 88.3365 635.24 91.5544 645.101C94.4196 653.883 103.344 659.173 112.447 658.022C112.14 660.999 112.436 664.084 113.426 667.117C117.327 679.074 130.486 685.7 142.818 681.918C155.15 678.135 161.985 665.378 158.084 653.423C156.891 649.764 154.827 646.609 152.189 644.094C158.615 638.5 161.448 629.583 158.674 621.08C154.893 609.494 142.141 603.072 130.19 606.737C122.736 609.024 117.355 614.695 115.277 621.45Z" fill="#6574AF"/>
<path d="M130.19 606.738C122.736 609.025 117.355 614.695 115.278 621.451C111.753 620.47 107.903 620.447 104.145 621.6C98.0486 623.469 93.5849 628 91.6762 633.451C94.2732 631.282 97.3536 629.575 100.828 628.509C108.383 626.193 116.212 627.389 122.454 631.147C125.332 624.593 131.027 619.248 138.581 616.932C145.063 614.945 151.749 615.541 157.459 618.124C152.632 608.437 141.079 603.399 130.19 606.738Z" fill="#6574AF"/>
<path d="M148.656 125.423C149.164 123.53 149.436 121.544 149.44 119.497C149.461 106.44 138.56 95.8384 125.093 95.8179C112.519 95.7986 102.156 105.01 100.817 116.857C98.871 116.242 96.7956 115.905 94.6381 115.902C83.571 115.885 74.5837 124.569 74.5663 135.299C74.5495 146.002 83.4616 154.694 94.4895 154.756C95.5319 161.904 101.86 167.41 109.523 167.422C117.253 167.434 123.64 161.853 124.623 154.617C128.249 159.552 134.192 162.778 140.918 162.789C151.987 162.806 160.972 154.121 160.99 143.391C161.002 135.299 155.908 128.356 148.656 125.423ZM120.925 142.758C120.924 142.801 120.923 142.845 120.922 142.89C120.873 142.837 120.827 142.784 120.778 142.732C120.827 142.74 120.876 142.75 120.925 142.758Z" fill="#FAEDD3"/>
<path d="M160.989 143.391C161.002 135.298 155.908 128.356 148.656 125.423C149.164 123.53 149.436 121.544 149.44 119.497C149.461 106.44 138.56 95.8382 125.093 95.8177C122.134 95.8133 119.3 96.3255 116.675 97.2578C117.142 97.2299 117.613 97.2106 118.088 97.2118C130.355 97.2305 140.284 106.888 140.265 118.781C140.258 123.509 138.673 127.875 136.002 131.423C147.177 131.619 156.165 140.465 156.148 151.341C156.146 152.583 156.021 153.795 155.794 154.973C155.866 155.38 155.933 155.786 155.988 156.194C159.091 152.779 160.982 148.302 160.989 143.391Z" fill="#EEC36B"/>
<path d="M181.615 681.615C181.106 683.508 180.833 685.494 180.829 687.54C180.803 700.598 191.701 711.203 205.169 711.227C217.742 711.251 228.108 702.042 229.451 690.195C231.397 690.811 233.472 691.149 235.629 691.153C246.697 691.174 255.687 682.492 255.707 671.762C255.727 661.059 246.818 652.364 235.79 652.299C234.75 645.151 228.424 639.643 220.76 639.628C213.031 639.614 206.642 645.193 205.657 652.428C202.032 647.492 196.09 644.264 189.364 644.252C178.296 644.231 169.307 652.913 169.287 663.643C169.272 671.735 174.363 678.68 181.615 681.615ZM209.351 664.289C209.352 664.245 209.353 664.201 209.354 664.157C209.403 664.21 209.449 664.262 209.498 664.314C209.449 664.306 209.399 664.297 209.351 664.289Z" fill="#6574AF"/>
<path d="M169.287 663.643C169.272 671.736 174.363 678.68 181.615 681.615C181.106 683.508 180.833 685.494 180.829 687.541C180.803 700.598 191.701 711.203 205.169 711.228C208.127 711.233 210.962 710.722 213.587 709.79C213.12 709.818 212.649 709.837 212.174 709.836C199.907 709.813 189.98 700.153 190.003 688.259C190.012 683.531 191.599 679.166 194.27 675.619C183.095 675.419 174.11 666.57 174.131 655.694C174.133 654.452 174.259 653.24 174.486 652.062C174.414 651.655 174.347 651.249 174.292 650.841C171.188 654.255 169.296 658.732 169.287 663.643Z" fill="#6574AF"/>
<path d="M252 120.902C252.507 119.008 252.779 117.022 252.783 114.976C252.804 101.919 241.904 91.3173 228.436 91.2962C215.863 91.2775 205.501 100.488 204.162 112.336C202.214 111.722 200.139 111.384 197.982 111.38C186.914 111.363 177.928 120.048 177.91 130.778C177.893 141.479 186.805 150.173 197.833 150.234C198.876 157.382 205.203 162.888 212.867 162.899C220.597 162.911 226.984 157.33 227.967 150.096C231.593 155.03 237.536 158.256 244.262 158.266C255.33 158.284 264.316 149.599 264.334 138.869C264.347 130.776 259.252 123.834 252 120.902ZM224.269 138.236C224.268 138.28 224.268 138.323 224.266 138.367C224.218 138.314 224.171 138.261 224.123 138.209C224.172 138.218 224.22 138.228 224.269 138.236Z" fill="#FAEDD3"/>
<path d="M264.333 138.868C264.346 130.776 259.252 123.833 252 120.901C252.507 119.007 252.779 117.021 252.783 114.975C252.804 101.918 241.904 91.3163 228.436 91.2952C225.477 91.2915 222.644 91.803 220.018 92.7354C220.486 92.7074 220.957 92.6881 221.432 92.6894C233.7 92.708 243.629 102.365 243.61 114.259C243.601 118.987 242.017 123.353 239.346 126.901C250.52 127.098 259.509 135.943 259.491 146.82C259.489 148.061 259.364 149.274 259.138 150.453C259.21 150.859 259.277 151.266 259.331 151.673C262.435 148.257 264.325 143.778 264.333 138.868Z" fill="#EEC36B"/>
<path d="M78.269 686.104C77.7612 687.997 77.489 689.983 77.4846 692.029C77.4594 705.086 88.356 715.691 101.824 715.717C114.397 715.739 124.762 706.532 126.105 694.684C128.052 695.299 130.127 695.637 132.284 695.642C143.352 695.663 152.341 686.981 152.362 676.251C152.383 665.549 143.473 656.853 132.445 656.788C131.404 649.64 125.079 644.132 117.415 644.118C109.686 644.104 103.297 649.683 102.312 656.917C98.6866 651.981 92.7454 648.754 86.0188 648.742C74.9511 648.721 65.9623 657.402 65.9409 668.133C65.9253 676.225 71.0181 683.169 78.269 686.104ZM106.005 668.778C106.007 668.734 106.007 668.691 106.008 668.647C106.057 668.7 106.104 668.753 106.152 668.805C106.102 668.796 106.054 668.786 106.005 668.778Z" fill="#6574AF"/>
<path d="M65.9414 668.133C65.9258 676.226 71.0181 683.17 78.269 686.105C77.7612 687.998 77.489 689.984 77.4846 692.03C77.4594 705.087 88.3559 715.692 101.823 715.718C104.783 715.722 107.616 715.212 110.243 714.28C109.774 714.308 109.303 714.327 108.828 714.326C96.5605 714.303 86.6345 704.643 86.6575 692.749C86.6671 688.021 88.2529 683.655 90.9249 680.109C79.7509 679.908 70.7652 671.06 70.7866 660.183C70.7889 658.942 70.9142 657.729 71.1402 656.55C71.0688 656.145 71.0018 655.737 70.9479 655.33C67.8427 658.745 65.9511 663.223 65.9414 668.133Z" fill="#6574AF"/>
<path d="M193.705 81.362C194.583 79.8354 195.28 78.1777 195.759 76.4081C198.813 65.1216 191.851 53.5728 180.209 50.6122C169.34 47.8487 158.238 53.5498 154.326 63.5024C152.786 62.5458 151.069 61.8011 149.205 61.3263C139.637 58.8934 129.848 64.4397 127.339 73.7154C124.836 82.9663 130.522 92.4309 140.045 94.8936C139.284 101.303 143.476 107.446 150.101 109.131C156.782 110.829 163.603 107.398 166.134 101.357C168.123 106.416 172.513 110.503 178.327 111.983C187.894 114.415 197.684 108.868 200.193 99.5933C202.086 92.5988 199.294 85.4818 193.705 81.362ZM165.696 90.2934C165.684 90.3313 165.673 90.3686 165.662 90.4059C165.633 90.3499 165.604 90.2946 165.574 90.2393C165.615 90.2573 165.655 90.2759 165.696 90.2934Z" fill="#FAEDD3"/>
<path d="M200.194 99.5938C202.086 92.5987 199.295 85.4817 193.706 81.3619C194.584 79.8353 195.281 78.1776 195.76 76.408C198.814 65.1215 191.852 53.5727 180.209 50.6121C177.652 49.9613 175.083 49.7861 172.596 50.0173C173.007 50.095 173.417 50.1826 173.828 50.2864C184.433 52.9834 190.774 63.5035 187.993 73.7843C186.887 77.8718 184.502 81.301 181.368 83.7848C190.986 86.3954 196.702 96.0092 194.159 105.41C193.868 106.485 193.477 107.506 193.008 108.475C192.976 108.842 192.94 109.208 192.892 109.573C196.37 107.298 199.045 103.839 200.194 99.5938Z" fill="#EEC36B"/>
<path d="M136.552 725.662C135.673 727.188 134.976 728.845 134.496 730.615C131.439 741.9 138.397 753.451 150.039 756.416C160.906 759.183 172.01 753.485 175.925 743.534C177.465 744.491 179.181 745.236 181.046 745.711C190.613 748.147 200.403 742.604 202.915 733.329C205.421 724.079 199.738 714.613 190.216 712.147C190.979 705.737 186.789 699.593 180.165 697.907C173.484 696.206 166.662 699.635 164.129 705.676C162.141 700.615 157.753 696.527 151.939 695.045C142.373 692.61 132.581 698.154 130.069 707.428C128.174 714.422 130.964 721.54 136.552 725.662ZM164.564 716.739C164.575 716.701 164.586 716.664 164.598 716.627C164.627 716.683 164.656 716.738 164.686 716.793C164.645 716.775 164.605 716.757 164.564 716.739Z" fill="#6574AF"/>
<path d="M130.068 707.428C128.174 714.422 130.963 721.54 136.551 725.662C135.673 727.188 134.975 728.845 134.495 730.615C131.438 741.9 138.396 753.451 150.038 756.416C152.595 757.067 155.164 757.243 157.651 757.013C157.24 756.935 156.83 756.847 156.419 756.743C145.815 754.043 139.477 743.521 142.262 733.241C143.368 729.154 145.755 725.725 148.89 723.243C139.273 720.629 133.559 711.013 136.106 701.613C136.397 700.539 136.788 699.518 137.257 698.549C137.289 698.182 137.326 697.815 137.374 697.451C133.895 699.724 131.218 703.183 130.068 707.428Z" fill="#6574AF"/>
<path d="M353.974 125.869C352.852 121.876 350.159 118.298 346.158 116.084C338.168 111.662 327.992 114.358 323.432 122.105C320.419 127.222 320.611 133.263 323.392 138.049C319.505 139.992 316.131 143.006 313.802 146.963C307.39 157.853 311.299 171.721 322.533 177.937C333.766 184.153 348.07 180.363 354.481 169.473C355.818 167.203 356.7 164.804 357.166 162.371C365.718 164.539 375.037 161 379.628 153.202C385.115 143.883 381.77 132.017 372.157 126.697C366.366 123.493 359.622 123.401 353.974 125.869Z" fill="#FAEDD3"/>
<path d="M353.974 125.869C352.852 121.876 350.159 118.298 346.159 116.084C340.362 112.878 333.419 113.417 328.301 116.911C332.469 115.924 337.018 116.417 341.039 118.642C347.31 122.112 350.505 128.794 349.679 135.334C354.938 132.12 361.805 131.75 367.58 134.945C375.919 139.559 378.82 149.854 374.061 157.937C373.553 158.8 372.974 159.599 372.343 160.339C375.28 158.677 377.821 156.272 379.628 153.202C385.115 143.883 381.77 132.017 372.157 126.698C366.366 123.493 359.622 123.401 353.974 125.869Z" fill="#EEC36B"/>
<path d="M-23.7031 681.104C-22.5825 685.098 -19.8903 688.677 -15.8906 690.892C-7.90169 695.316 2.27494 692.623 6.83784 684.878C9.85221 679.762 9.66202 673.721 6.88261 668.934C10.7705 666.992 14.1454 663.98 16.4756 660.023C22.8906 649.135 18.9865 635.266 7.75477 629.047C-3.47631 622.827 -17.7823 626.612 -24.1966 637.5C-25.5337 639.769 -26.4165 642.169 -26.8835 644.601C-35.435 642.431 -44.7553 645.967 -49.3487 653.763C-54.8382 663.08 -51.4966 674.948 -41.8857 680.27C-36.0962 683.477 -29.3515 683.571 -23.7031 681.104Z" fill="#6574AF"/>
<path d="M-23.7032 681.104C-22.5825 685.098 -19.8904 688.677 -15.8907 690.892C-10.0955 694.1 -3.15238 693.563 1.96736 690.071C-2.20121 691.056 -6.74974 690.561 -10.77 688.335C-17.0406 684.864 -20.2327 678.18 -19.4052 671.641C-24.6647 674.854 -31.5326 675.221 -37.3066 672.024C-45.6435 667.407 -48.5418 657.112 -43.7798 649.03C-43.2717 648.167 -42.6928 647.369 -42.0611 646.629C-44.9991 648.289 -47.5403 650.694 -49.3488 653.763C-54.8383 663.08 -51.4967 674.948 -41.8858 680.27C-36.0962 683.477 -29.3516 683.571 -23.7032 681.104Z" fill="#6574AF"/>
<path d="M182.684 170.07C186.209 171.048 190.059 171.069 193.817 169.915C203.987 166.793 209.62 156.27 206.4 146.409C203.532 137.628 194.606 132.34 185.504 133.495C185.809 130.517 185.513 127.433 184.522 124.399C180.617 112.445 167.456 105.821 155.124 109.607C142.794 113.394 135.963 126.154 139.868 138.109C141.063 141.766 143.127 144.921 145.766 147.434C139.342 153.031 136.511 161.949 139.288 170.451C143.072 182.035 155.827 188.454 167.777 184.785C175.231 182.497 180.609 176.824 182.684 170.07Z" fill="#FAEDD3"/>
<path d="M167.777 184.785C175.23 182.497 180.609 176.824 182.684 170.069C186.209 171.048 190.059 171.069 193.817 169.915C199.912 168.044 204.375 163.512 206.282 158.059C203.687 160.23 200.606 161.938 197.132 163.005C189.578 165.324 181.747 164.13 175.505 160.374C172.629 166.929 166.936 172.275 159.382 174.594C152.901 176.584 146.215 175.989 140.504 173.409C145.334 183.094 156.888 188.127 167.777 184.785Z" fill="#EEC36B"/>
<g opacity="0.1">
<path opacity="0.1" d="M362.279 159.828C362.292 151.554 355.385 144.836 346.851 144.824C339.395 144.812 333.169 149.925 331.707 156.735C330.661 149.459 324.227 143.852 316.432 143.84C307.899 143.827 300.968 150.524 300.955 158.797C300.955 158.955 300.963 159.11 300.967 159.267H300.941C300.95 158.986 300.955 158.818 300.955 158.797C300.968 150.653 294.169 144.274 285.768 144.262C277.367 144.249 270.547 150.84 270.533 158.984C270.533 159.063 270.536 159.14 270.539 159.219H270.521C270.526 159.063 270.534 158.908 270.534 158.751C270.547 150.477 263.64 143.759 255.107 143.746C246.573 143.732 239.643 150.429 239.63 158.703C239.63 158.859 239.637 159.015 239.642 159.172L239.629 159.171C239.63 159.034 239.63 158.95 239.63 158.937C239.644 150.791 232.845 144.18 224.444 144.167C216.043 144.154 209.222 150.746 209.209 158.89C209.208 158.968 209.212 159.046 209.214 159.125H209.197C209.202 158.969 209.209 158.813 209.21 158.657C209.223 150.382 202.316 143.665 193.782 143.652C185.248 143.638 178.319 150.335 178.306 158.609C178.305 158.765 178.312 158.921 178.318 159.077H178.299C178.302 158.999 178.306 158.922 178.306 158.843C178.319 150.698 171.52 144.086 163.119 144.074C154.719 144.06 147.897 150.652 147.884 158.797C147.884 158.811 147.886 158.897 147.891 159.031H147.871C147.878 158.875 147.884 158.72 147.884 158.563C147.897 150.289 140.991 143.571 132.456 143.558C123.923 143.545 116.994 150.241 116.981 158.515C116.981 158.672 116.987 158.828 116.992 158.983H116.974C116.977 158.905 116.981 158.828 116.981 158.749C116.994 150.604 110.195 143.991 101.794 143.978C93.3931 143.965 86.5733 150.557 86.559 158.702C86.5565 159.791 103.211 414.471 106.831 469.817C106.824 469.818 106.819 469.819 106.813 469.82L107.349 477.728C107.46 479.441 107.52 480.355 107.52 480.355L133.595 480.395L133.591 480.31L159.668 480.349C159.669 480.4 159.67 480.435 159.67 480.435L185.263 480.474L185.262 480.388L211.338 480.428L211.339 480.515L237.414 480.554C237.414 480.554 237.414 480.52 237.415 480.467L263.492 480.507L263.491 480.594L289.565 480.634C289.565 480.634 289.567 480.6 289.569 480.546L315.645 480.587L315.641 480.674L341.233 480.713C341.233 480.713 341.235 480.679 341.24 480.627H341.326L341.336 480.48H341.476L353.863 288.824C353.863 288.824 353.859 288.835 353.855 288.846C358.329 220.682 362.278 160.392 362.279 159.828Z" fill="#000100"/>
</g>
<path d="M328.29 164.757C328.296 164.601 328.303 164.446 328.303 164.289C328.317 156.015 321.409 149.298 312.876 149.284C304.342 149.271 297.413 155.967 297.399 164.242C297.399 164.399 297.407 164.554 297.412 164.71L266.966 164.662C266.971 164.506 266.978 164.352 266.979 164.194C266.992 155.92 260.085 149.203 251.551 149.189C243.017 149.176 236.089 155.873 236.075 164.146C236.075 164.303 236.082 164.458 236.087 164.615L205.641 164.567C205.647 164.412 205.653 164.256 205.654 164.099C205.668 155.826 198.76 149.108 190.227 149.095C181.693 149.083 174.764 155.779 174.751 164.052C174.75 164.209 174.757 164.364 174.763 164.52L144.316 164.473C144.322 164.318 144.329 164.162 144.329 164.005C144.343 155.732 137.435 149.013 128.902 149C120.368 148.988 113.438 155.684 113.425 163.958C113.425 164.115 113.432 164.27 113.437 164.426L83.4039 164.38L104.488 485.712L337.772 486.071L358.365 164.803L328.29 164.757Z" fill="#FFFCE3"/>
<path d="M113.409 164.66C113.413 164.504 113.422 164.349 113.422 164.192C113.435 156.048 106.636 149.435 98.2347 149.422C89.8342 149.409 83.0137 156.001 83 164.145C82.9975 165.367 103.961 485.797 103.961 485.797L130.037 485.837L113.409 164.66Z" fill="#B5252B"/>
<path d="M174.734 164.754C174.74 164.599 174.747 164.444 174.747 164.286C174.76 156.142 167.961 149.529 159.56 149.516C151.159 149.504 144.339 156.096 144.325 164.24C144.323 165.305 156.112 485.878 156.112 485.878L181.704 485.917L174.734 164.754Z" fill="#B5252B"/>
<path d="M220.887 149.611C212.486 149.598 205.665 156.189 205.651 164.334C205.651 164.491 205.658 164.646 205.663 164.802L207.78 485.957L233.856 485.997C233.856 485.997 236.071 165.289 236.073 164.381C236.086 156.236 229.287 149.624 220.887 149.611Z" fill="#B5252B"/>
<path d="M282.212 149.706C273.811 149.693 266.991 156.284 266.977 164.428C266.976 164.585 266.984 164.74 266.989 164.897L259.931 486.037L286.007 486.077C286.007 486.077 297.397 165.286 297.398 164.242C297.412 156.097 290.612 149.719 282.212 149.706Z" fill="#B5252B"/>
<path d="M358.723 165.272C358.736 156.998 351.829 150.28 343.296 150.267C334.843 150.254 327.968 156.825 327.826 164.991L312.082 486.117L337.675 486.157C337.675 486.157 358.722 166.576 358.723 165.272Z" fill="#B5252B"/>
<g opacity="0.1">
<path opacity="0.1" d="M317.444 322.274C317.383 359.375 274.198 389.386 220.988 389.305C167.777 389.223 124.691 359.079 124.752 321.977C124.812 284.875 167.997 254.864 221.208 254.946C274.419 255.027 317.505 285.171 317.444 322.274Z" fill="#000100"/>
</g>
<path d="M316.877 318.059C316.815 355.162 273.631 385.173 220.42 385.091C167.21 385.008 124.124 354.865 124.184 317.763C124.245 280.661 167.429 250.65 220.64 250.731C273.851 250.813 316.937 280.957 316.877 318.059Z" fill="#EBB95C"/>
<g opacity="0.1">
<path opacity="0.1" d="M350.304 294.268C350.304 294.268 295.636 447.162 103.254 475.262L103.952 485.563L337.918 485.923L350.304 294.268Z" fill="#000100"/>
</g>
<path d="M281.987 526.075C282.768 528.657 284.311 531.055 286.592 532.918C292.767 537.964 301.99 537.2 307.195 531.215C311.829 525.882 311.708 518.208 307.263 513.028C309.352 512.014 311.267 510.581 312.868 508.74C319.178 501.482 318.225 490.639 310.738 484.523C303.251 478.405 292.068 479.33 285.758 486.588C283.827 488.809 282.581 491.366 281.989 494.02C275.697 492.299 268.667 494.151 264.181 499.312C258.066 506.346 258.991 516.854 266.245 522.782C270.771 526.479 276.69 527.521 281.987 526.075Z" fill="#FAEDD3"/>
<path d="M245.383 530.382C247.086 530.574 248.872 530.274 250.531 529.41C255.024 527.071 256.89 521.497 254.702 516.959C252.752 512.918 248.242 511.064 244.105 512.36C244.037 510.887 243.681 509.41 243.008 508.014C240.354 502.512 233.786 500.35 228.34 503.186C222.893 506.022 220.629 512.781 223.283 518.283C224.096 519.966 225.275 521.335 226.676 522.345C224.094 525.586 223.413 530.153 225.3 534.065C227.873 539.397 234.237 541.492 239.515 538.744C242.807 537.03 244.899 533.836 245.383 530.382Z" fill="#FAEDD3"/>
<path d="M212.368 495.745C214.65 495.935 217.025 495.466 219.21 494.247C225.123 490.948 227.402 483.428 224.303 477.447C221.541 472.122 215.443 469.819 209.965 471.71C209.817 469.744 209.285 467.784 208.331 465.944C204.572 458.695 195.713 456.059 188.544 460.059C181.374 464.058 178.61 473.177 182.369 480.427C183.519 482.646 185.148 484.429 187.059 485.725C183.734 490.156 183 496.285 185.672 501.44C189.315 508.466 197.9 511.02 204.848 507.144C209.181 504.726 211.853 500.378 212.368 495.745Z" fill="#FAEDD3"/>
<path d="M154.567 518.836C155.311 519.943 156.388 520.852 157.735 521.401C161.38 522.889 165.616 521.188 167.196 517.602C168.603 514.408 167.428 510.798 164.578 508.995C165.414 508.212 166.108 507.257 166.595 506.154C168.511 501.806 166.481 496.819 162.061 495.016C157.641 493.212 152.505 495.274 150.59 499.622C150.003 500.952 149.788 502.342 149.897 503.682C146.68 503.784 143.637 505.68 142.275 508.772C140.419 512.985 142.386 517.818 146.668 519.566C149.34 520.656 152.281 520.288 154.567 518.836Z" fill="#FAEDD3"/>
<path d="M96.7114 532.009C95.0519 533.563 93.8164 535.622 93.2595 538.037C91.751 544.575 95.7675 551.236 102.231 552.918C107.988 554.413 113.74 551.451 115.995 546.166C117.541 547.359 119.337 548.266 121.326 548.783C129.162 550.821 136.998 546.046 138.826 538.119C140.655 530.191 135.785 522.114 127.949 520.077C125.551 519.454 123.155 519.471 120.929 520.019C119.882 514.635 115.861 510.034 110.288 508.585C102.694 506.611 95.1009 511.238 93.3283 518.92C92.2233 523.712 93.644 528.56 96.7114 532.009Z" fill="#FAEDD3"/>
<path d="M275.32 42.3047C279.845 46.0018 285.765 47.0435 291.062 45.5984C291.842 48.1804 293.386 50.5778 295.667 52.4413C299.367 55.4652 304.164 56.4001 308.533 55.3776C306.051 54.6447 303.677 53.4246 301.567 51.7016C296.982 47.9548 294.603 42.6148 294.555 37.2233C289.067 38.091 283.235 36.7223 278.649 32.9755C274.715 29.7607 272.403 25.3731 271.795 20.7871C267.357 27.7002 268.709 36.9032 275.32 42.3047Z" fill="#EEC36B"/>
<path d="M25.8319 714.366C27.3696 714.411 28.9385 714.271 30.5086 713.926C40.5271 711.732 46.8205 702.108 44.5654 692.429C42.4602 683.394 33.6487 677.508 24.3345 678.551C24.4781 677.049 24.3873 675.5 24.0262 673.949C22.1727 665.996 13.9972 661.011 5.76382 662.813C-2.44776 664.611 -7.6124 672.484 -5.7999 680.417C-11.1069 682.375 -14.262 687.853 -12.9791 693.36C-11.6849 698.914 -6.32823 702.558 -0.612884 702.04C-3.78538 705.48 -5.25789 710.295 -4.13161 715.129C-2.27932 723.083 5.89746 728.068 14.1308 726.266C20.3397 724.906 24.8056 720.073 25.8319 714.366ZM7.861 697.379C7.82681 697.386 7.79387 697.392 7.75968 697.399C7.79201 697.355 7.82432 697.313 7.8554 697.269C7.85789 697.305 7.85913 697.342 7.861 697.379Z" fill="#6574AF"/>
<path d="M14.1309 726.266C20.3398 724.906 24.8057 720.073 25.8319 714.366C27.3697 714.411 28.9386 714.271 30.5087 713.926C40.5272 711.732 46.8206 702.108 44.5655 692.429C44.0701 690.304 43.1993 688.354 42.0413 686.626C42.142 686.958 42.2358 687.292 42.3148 687.634C44.3691 696.449 38.6369 705.216 29.511 707.215C25.8823 708.008 22.2666 707.61 19.0954 706.291C20.8289 714.352 15.5599 722.306 7.21464 724.134C6.26177 724.342 5.31078 724.458 4.36848 724.494C4.07012 724.616 3.76928 724.732 3.46533 724.839C6.60986 726.491 10.3635 727.091 14.1309 726.266Z" fill="#6574AF"/>
</svg>
